<?xml version="1.0" standalone="no"?>
<svg xmlns:xlink="http://www.w3.org/1999/xlink" id="wave" style="transform:rotate(180deg); transition: 0.3s" viewBox="0 0 1440 180" version="1.1" xmlns="http://www.w3.org/2000/svg"><defs><linearGradient id="sw-gradient-0" x1="0" x2="0" y1="1" y2="0"><stop stop-color="rgba(247, 234, 182, 1)" offset="0%"/><stop stop-color="rgba(247, 234, 182, 1)" offset="100%"/></linearGradient></defs><path style="transform:translate(0, 0px); opacity:1" fill="url(#sw-gradient-0)" d="M0,72L40,81C80,90,160,108,240,108C320,108,400,90,480,78C560,66,640,60,720,60C800,60,880,66,960,57C1040,48,1120,24,1200,33C1280,42,1360,84,1440,108C1520,132,1600,138,1680,120C1760,102,1840,60,1920,39C2000,18,2080,18,2160,21C2240,24,2320,30,2400,27C2480,24,2560,12,2640,9C2720,6,2800,12,2880,36C2960,60,3040,102,3120,126C3200,150,3280,156,3360,144C3440,132,3520,102,3600,96C3680,90,3760,108,3840,114C3920,120,4000,114,4080,120C4160,126,4240,144,4320,147C4400,150,4480,138,4560,117C4640,96,4720,66,4800,60C4880,54,4960,72,5040,87C5120,102,5200,114,5280,123C5360,132,5440,138,5520,123C5600,108,5680,72,5720,54L5760,36L5760,180L5720,180C5680,180,5600,180,5520,180C5440,180,5360,180,5280,180C5200,180,5120,180,5040,180C4960,180,4880,180,4800,180C4720,180,4640,180,4560,180C4480,180,4400,180,4320,180C4240,180,4160,180,4080,180C4000,180,3920,180,3840,180C3760,180,3680,180,3600,180C3520,180,3440,180,3360,180C3280,180,3200,180,3120,180C3040,180,2960,180,2880,180C2800,180,2720,180,2640,180C2560,180,2480,180,2400,180C2320,180,2240,180,2160,180C2080,180,2000,180,1920,180C1840,180,1760,180,1680,180C1600,180,1520,180,1440,180C1360,180,1280,180,1200,180C1120,180,1040,180,960,180C880,180,800,180,720,180C640,180,560,180,480,180C400,180,320,180,240,180C160,180,80,180,40,180L0,180Z"/></svg>